<svg xmlns="http://www.w3.org/2000/svg" viewBox="0 0 680 300" role="img" aria-label="封面:节点汇聚与逆流僭越者">
  <rect width="680" height="300" fill="#1c2330"/>
  <g stroke="#3a4659" stroke-width="1">
    <line x1="60" y1="50" x2="340" y2="150"/><line x1="120" y1="40" x2="340" y2="150"/>
    <line x1="40" y1="120" x2="340" y2="150"/><line x1="90" y1="200" x2="340" y2="150"/>
    <line x1="160" y1="250" x2="340" y2="150"/><line x1="50" y1="170" x2="340" y2="150"/>
    <line x1="200" y1="70" x2="340" y2="150"/><line x1="250" y1="230" x2="340" y2="150"/>
    <line x1="130" y1="150" x2="340" y2="150"/><line x1="220" y1="180" x2="340" y2="150"/>
  </g>
  <g fill="#5b6b85">
    <circle cx="60" cy="50" r="4"/><circle cx="120" cy="40" r="3"/><circle cx="40" cy="120" r="3"/>
    <circle cx="90" cy="200" r="4"/><circle cx="160" cy="250" r="3"/><circle cx="50" cy="170" r="3"/>
    <circle cx="200" cy="70" r="3"/><circle cx="250" cy="230" r="4"/><circle cx="130" cy="150" r="3"/>
    <circle cx="220" cy="180" r="3"/>
  </g>
  <circle cx="340" cy="150" r="22" fill="#c8a96a"/>
  <circle cx="340" cy="150" r="34" fill="none" stroke="#c8a96a" stroke-width="1" opacity="0.5"/>
  <line x1="600" y1="150" x2="380" y2="150" stroke="#a8453a" stroke-width="1.5" stroke-dasharray="4 4"/>
  <circle cx="600" cy="150" r="6" fill="#a8453a"/>
  <path d="M392 150 l12 -5 l0 10 z" fill="#a8453a"/>
</svg>
