<svg xmlns="http://www.w3.org/2000/svg" viewBox="0 0 680 300" role="img" aria-label="封面:涨停板墙与自我循环">
  <rect width="680" height="300" fill="#181f2b"/>
  <g fill="#2a3342">
    <rect x="40" y="40" width="46" height="30" rx="3"/><rect x="98" y="40" width="46" height="30" rx="3"/>
    <rect x="156" y="40" width="46" height="30" rx="3"/><rect x="538" y="40" width="46" height="30" rx="3"/>
    <rect x="596" y="40" width="46" height="30" rx="3"/>
    <rect x="40" y="82" width="46" height="30" rx="3"/><rect x="98" y="82" width="46" height="30" rx="3"/>
    <rect x="596" y="82" width="46" height="30" rx="3"/>
    <rect x="40" y="230" width="46" height="30" rx="3"/><rect x="98" y="230" width="46" height="30" rx="3"/>
    <rect x="156" y="230" width="46" height="30" rx="3"/><rect x="538" y="230" width="46" height="30" rx="3"/>
    <rect x="596" y="230" width="46" height="30" rx="3"/>
  </g>
  <g fill="#c8a96a">
    <rect x="538" y="82" width="46" height="30" rx="3"/><rect x="156" y="82" width="46" height="30" rx="3"/>
    <rect x="40" y="188" width="46" height="30" rx="3"/><rect x="596" y="188" width="46" height="30" rx="3"/>
  </g>
  <g transform="translate(340,150)">
    <path d="M0,-58 A58,58 0 1 1 -41,41" fill="none" stroke="#c8a96a" stroke-width="5" stroke-linecap="round"/>
    <path d="M-41,41 l-14,-2 l8,12 z" fill="#c8a96a"/>
    <text x="0" y="9" text-anchor="middle" font-family="'Noto Serif SC',serif" font-size="30" font-weight="700" fill="#f1e6cf">算力</text>
  </g>
  <line x1="430" y1="150" x2="560" y2="150" stroke="#a8453a" stroke-width="2" stroke-dasharray="5 5" opacity="0.7"/>
  <path d="M560 150 l-12 -5 l0 10 z" fill="#a8453a"/>
</svg>
